<?xml version="1.0" encoding="UTF-8" standalone="no"?>
<!-- Created with Inkscape (http://www.inkscape.org/) -->

<svg
   xmlns:dc="http://purl.org/dc/elements/1.1/"
   xmlns:cc="http://creativecommons.org/ns#"
   xmlns:rdf="http://www.w3.org/1999/02/22-rdf-syntax-ns#"
   xmlns:svg="http://www.w3.org/2000/svg"
   xmlns="http://www.w3.org/2000/svg"
   xmlns:sodipodi="http://sodipodi.sourceforge.net/DTD/sodipodi-0.dtd"
   xmlns:inkscape="http://www.inkscape.org/namespaces/inkscape"
   width="297mm"
   height="210mm"
   viewBox="0 0 297 210"
   version="1.1"
   id="svg4524"
   inkscape:version="0.92.3 (2405546, 2018-03-11)"
   sodipodi:docname="drawing.svg"
   inkscape:export-filename="G:\ССОЭ\флаги\символика\drawing.png"
   inkscape:export-xdpi="96"
   inkscape:export-ydpi="96">
  <defs
     id="defs4518" />
  <sodipodi:namedview
     id="base"
     pagecolor="#ffffff"
     bordercolor="#666666"
     borderopacity="1.0"
     inkscape:pageopacity="0.0"
     inkscape:pageshadow="2"
     inkscape:zoom="0.7"
     inkscape:cx="399.46351"
     inkscape:cy="539.06787"
     inkscape:document-units="mm"
     inkscape:current-layer="layer3"
     showgrid="false"
     inkscape:window-width="1920"
     inkscape:window-height="1017"
     inkscape:window-x="1912"
     inkscape:window-y="-8"
     inkscape:window-maximized="1" />
  <metadata
     id="metadata4521">
    <rdf:RDF>
      <cc:Work
         rdf:about="">
        <dc:format>image/svg+xml</dc:format>
        <dc:type
           rdf:resource="http://purl.org/dc/dcmitype/StillImage" />
        <dc:title />
      </cc:Work>
    </rdf:RDF>
  </metadata>
  <g
     inkscape:groupmode="layer"
     id="layer3"
     inkscape:label="Фон белый">
    <rect
       style="fill:#ffffff;fill-opacity:1;stroke:none;stroke-width:4.51341248;stroke-miterlimit:4;stroke-dasharray:none;stroke-opacity:1"
       id="rect1512"
       width="296.7113"
       height="209.3988"
       x="0.37797618"
       y="-0.15476206" />
  </g>
  <g
     inkscape:groupmode="layer"
     id="layer5"
     inkscape:label="Фон">
    <rect
       style="opacity:0.98999999;fill:#f40000;fill-opacity:1;stroke:none;stroke-width:0.32937583;stroke-miterlimit:4;stroke-dasharray:none;stroke-opacity:1"
       id="rect5075"
       width="297.84521"
       height="65.942902"
       x="-0.32075182"
       y="71.684608" />
  </g>
  <g
     inkscape:groupmode="layer"
     id="layer6"
     inkscape:label="Фон 2">
    <rect
       style="opacity:0.98999999;fill:none;fill-opacity:1;stroke:#ffbd00;stroke-width:5;stroke-miterlimit:4;stroke-dasharray:none;stroke-opacity:1"
       id="rect5075-6"
       width="326.41647"
       height="31.013458"
       x="-14.606379"
       y="89.14933" />
  </g>
  <g
     inkscape:groupmode="layer"
     id="layer2"
     inkscape:label="Layer 2">
    <g
       inkscape:label="Герб"
       inkscape:groupmode="layer"
       id="layer1"
       transform="translate(0,-87)"
       style="display:inline;opacity:0.98999999">
      <path
         inkscape:connector-curvature="0"
         id="path3428"
         style="fill:#ffffff;stroke-width:1;stroke-miterlimit:4;stroke-dasharray:none"
         d="m 100.25332,144.07552 v 11.16562 53.74844 c 0,26.74659 21.60205,48.42743 48.2481,48.42738 26.64605,0 48.2481,-21.68079 48.2481,-48.42738 v -53.74844 -11.16562 l -5.32823,3.47805 -5.33541,-3.47805 v 11.16562 h -10.79271 v -11.16562 l -5.3354,3.47805 -5.32823,-3.47805 v 11.16562 h -10.79989 v -11.16562 l -5.32823,3.47805 -5.33541,-3.47805 v 11.16562 H 132.3733 v -11.16562 l -5.32823,3.47805 -5.3354,-3.47805 v 11.16562 h -10.79272 v -11.16562 l -5.3354,3.47805 z" />
      <path
         inkscape:connector-curvature="0"
         id="path3430"
         style="fill:none;stroke:#000000;stroke-width:0.98799998;stroke-miterlimit:4;stroke-dasharray:none;stroke-opacity:1"
         d="m 100.25332,144.07552 v 11.16562 53.74844 c 0,26.74659 21.60205,48.42743 48.2481,48.42738 26.64605,0 48.2481,-21.68079 48.2481,-48.42738 v -53.74844 -11.16562 l -5.32823,3.47805 -5.33541,-3.47805 v 11.16562 h -10.79271 v -11.16562 l -5.3354,3.47805 -5.32823,-3.47805 v 11.16562 h -10.79989 v -11.16562 l -5.32823,3.47805 -5.33541,-3.47805 v 11.16562 H 132.3733 v -11.16562 l -5.32823,3.47805 -5.3354,-3.47805 v 11.16562 h -10.79272 v -11.16562 l -5.3354,3.47805 z" />
      <path
         inkscape:connector-curvature="0"
         id="path3432"
         d="m 145.71179,195.56503 c -2.51477,0 -3.11949,1.92189 -3.11949,1.92189 h -2.16571 v 0.83187 l -24.834,-0.25817 c -1.91315,-0.27319 -2.17989,-0.54433 -2.95455,-0.81752 -0.83239,1.41376 -1.55616,3.62038 -1.55616,5.17763 0,1.55726 0.72377,3.77105 1.55616,5.18481 0.77466,-0.27319 1.0414,-0.54433 2.95455,-0.81752 l 55.64882,-0.5737 c 2.88328,0.37261 5.34754,1.01739 6.38957,2.6175 0.46508,0.08 0.73689,0.74594 1.47728,0 1.41352,-1.20321 0.79431,-2.93188 1.79998,-4.01589 0.46235,-0.49837 1.13121,-0.79091 1.87886,-1.00397 0.3324,0.91675 0.97972,1.54181 1.72827,1.54181 1.08633,0 1.96492,-1.31486 1.96492,-2.93304 0,-1.61817 -0.87859,-2.92586 -1.96492,-2.92586 -0.74858,0 -1.39588,0.62498 -1.72827,1.54182 -0.74765,-0.21515 -1.41651,-0.51278 -1.87886,-1.01115 -1.00567,-1.08401 -0.38646,-2.81268 -1.79998,-4.01589 -0.27765,-0.27973 -0.4937,-0.35623 -0.6741,-0.34422 -0.30067,0.02 -0.51251,0.29422 -0.80318,0.34422 -1.04203,1.60011 -3.50629,2.25206 -6.38957,2.62467 l -20.98305,-0.21514 v -0.68844 h -1.1474 c 0,0 -0.88439,-2.16571 -3.39917,-2.16571 z"
         style="stroke-width:0.22947967" />
      <path
         inkscape:connector-curvature="0"
         id="path3434"
         style="opacity:0.88095236;fill:#ffffff;stroke-width:0.22947967"
         d="m 185.00813,201.74985 a 0.53272099,1.4752274 0 0 1 -1.06544,0 0.53272099,1.4752274 0 1 1 1.06544,0 z" />
      <rect
         id="rect3436"
         y="199.20917"
         x="118.86882"
         width="52.780323"
         style="opacity:0.88095236;fill:#ffffff;stroke-width:0.22947967"
         ry="0.53272063"
         rx="4.4256797"
         height="1.0654413" />
      <g
         id="g3438"
         style="fill:#ffbd00;fill-opacity:1;stroke:#000000;stroke-width:1.5"
         transform="matrix(0.22947967,0,0,0.22947967,60.761288,14.591625)">
        <path
           inkscape:connector-curvature="0"
           id="path3440"
           style="fill:#ffbd00;fill-opacity:1;stroke:#000000;stroke-width:1.5;stroke-linejoin:round"
           d="m 409.21875,835.78125 -113,1.15625 V 868.25 h 56.46875 l 57.5,95.71875 H 480 l -5.90625,-9.09375 c -14.10528,-23.4282 1.75112,-54.69382 -36.9375,-60.5625 l -27.875,-58.53125 z" />
        <path
           inkscape:connector-curvature="0"
           id="path3442"
           style="fill:#ffbd00;fill-opacity:1;stroke:#000000;stroke-width:1.5;stroke-linejoin:round"
           d="m 442.65625,835.4375 -33.375,0.34375 27.875,58.53125 c 38.68862,5.86868 22.83222,37.1343 36.9375,60.5625 L 480,963.96875 505.15625,946.34375 499.25,937.25 c -14.10528,-23.4282 1.71987,-54.66257 -36.96875,-60.53125 z" />
        <path
           inkscape:connector-curvature="0"
           id="path3444"
           style="fill:#ffbd00;fill-opacity:1;stroke:#000000;stroke-width:1.5;stroke-linejoin:round"
           d="m 442.65625,835.4375 -16.6875,0.15625 23.75,49.90625 c 38.68863,5.86868 22.83222,37.1343 36.9375,60.5625 l 5.90625,9.09375 12.59375,-8.8125 L 499.25,937.25 c -14.10528,-23.4282 1.71987,-54.66257 -36.96875,-60.53125 z" />
      </g>
      <g
         id="g3446"
         transform="matrix(0.22947967,0,0,0.22947967,67.51772,15.182788)"
         style="fill:#ffbd00;fill-opacity:1">
        <path
           inkscape:connector-curvature="0"
           id="path3448"
           style="fill:#ffbd00;fill-opacity:1;stroke:#000000;stroke-width:1.5"
           d="m 297.6875,812 c -40.92825,0 -74.125,33.19675 -74.125,74.125 0,40.92825 33.19675,74.09375 74.125,74.09375 40.92825,0 74.09375,-33.1655 74.09375,-74.09375 0,-40.92825 -33.1655,-74.125 -74.09375,-74.125 z m 0,10.625 c 35.06769,0 63.5,28.43231 63.5,63.5 0,35.06769 -28.43231,63.46875 -63.5,63.46875 -35.06769,0 -63.5,-28.40106 -63.5,-63.46875 0,-35.06769 28.43231,-63.5 63.5,-63.5 z" />
        <path
           inkscape:connector-curvature="0"
           id="path3450"
           style="fill:#ffbd00;fill-opacity:1;stroke:#000000;stroke-width:1.5"
           d="m 278.21875,826.71875 c 7.2335,6.72929 15.88472,12.81984 13.34375,19.625 -2.57316,6.89135 -3.34821,8.64398 -3.34821,10.5 0,5.23146 4.3484,9.46875 9.45759,9.46875 5.10919,0 9.48883,-4.23729 9.48883,-9.46875 0,-1.85602 -0.77505,-3.60865 -3.34821,-10.5 -2.54097,-6.80516 6.11025,-12.89571 13.34375,-19.625 -3.66323,3.22062 -10.9971,5.4375 -19.46875,5.4375 -8.47165,0 -15.80552,-2.21688 -19.46875,-5.4375 z" />
        <path
           inkscape:connector-curvature="0"
           id="path3452"
           style="fill:#ffbd00;fill-opacity:1;stroke:#000000;stroke-width:1.5"
           d="m 297.6875,822.625 c -7.09373,0 -13.91098,1.16603 -20.28125,3.3125 3.30847,3.64328 11.13748,6.21875 20.28125,6.21875 9.1561,0 16.98056,-2.56764 20.28125,-6.21875 -6.37027,-2.14647 -13.18752,-3.3125 -20.28125,-3.3125 z" />
        <path
           inkscape:connector-curvature="0"
           id="path3454"
           style="fill:#ffbd00;fill-opacity:1;stroke:#000000;stroke-width:1.5"
           d="m 357.06535,866.64956 c -6.72929,7.2335 -12.81984,15.88472 -19.625,13.34375 -6.89135,-2.57316 -8.64398,-3.34821 -10.5,-3.34821 -5.23146,0 -9.46875,4.3484 -9.46875,9.45759 0,5.10919 4.23729,9.48883 9.46875,9.48883 1.85602,0 3.60865,-0.77505 10.5,-3.34821 6.80516,-2.54097 12.89571,6.11025 19.625,13.34375 -3.22062,-3.66323 -5.4375,-10.9971 -5.4375,-19.46875 0,-8.47165 2.21688,-15.80552 5.4375,-19.46875 z" />
        <path
           inkscape:connector-curvature="0"
           id="path3456"
           style="fill:#ffbd00;fill-opacity:1;stroke:#000000;stroke-width:1.5"
           d="m 361.1591,886.11831 c 0,-7.09373 -1.16603,-13.91098 -3.3125,-20.28125 -3.64328,3.30847 -6.21875,11.13748 -6.21875,20.28125 0,9.1561 2.56764,16.98056 6.21875,20.28125 2.14647,-6.37027 3.3125,-13.18752 3.3125,-20.28125 z" />
        <path
           inkscape:connector-curvature="0"
           id="path3458"
           style="fill:#ffbd00;fill-opacity:1;stroke:#000000;stroke-width:1.5"
           d="m 278.21206,945.50285 c 7.2335,-6.72929 15.88472,-12.81984 13.34375,-19.625 -2.57316,-6.89135 -3.34821,-8.64398 -3.34821,-10.5 0,-5.23146 4.3484,-9.46875 9.45759,-9.46875 5.10919,0 9.48883,4.23729 9.48883,9.46875 0,1.85602 -0.77505,3.60865 -3.34821,10.5 -2.54097,6.80516 6.11025,12.89571 13.34375,19.625 -3.66323,-3.22062 -10.9971,-5.4375 -19.46875,-5.4375 -8.47165,0 -15.80552,2.21688 -19.46875,5.4375 z" />
        <path
           inkscape:connector-curvature="0"
           id="path3460"
           style="fill:#ffbd00;fill-opacity:1;stroke:#000000;stroke-width:1.5"
           d="m 297.68081,949.5966 c -7.09373,0 -13.91098,-1.16603 -20.28125,-3.3125 3.30847,-3.64328 11.13748,-6.21875 20.28125,-6.21875 9.1561,0 16.98056,2.56764 20.28125,6.21875 -6.37027,2.14647 -13.18752,3.3125 -20.28125,3.3125 z" />
        <path
           inkscape:connector-curvature="0"
           id="path3462"
           style="fill:#ffbd00;fill-opacity:1;stroke:#000000;stroke-width:1.5"
           d="m 357.06535,866.64956 c -6.72929,7.2335 -12.81984,15.88472 -19.625,13.34375 -6.89135,-2.57316 -8.64398,-3.34821 -10.5,-3.34821 -5.23146,0 -9.46875,4.3484 -9.46875,9.45759 0,5.10919 4.23729,9.48883 9.46875,9.48883 1.85602,0 3.60865,-0.77505 10.5,-3.34821 6.80516,-2.54097 12.89571,6.11025 19.625,13.34375 -3.22062,-3.66323 -5.4375,-10.9971 -5.4375,-19.46875 0,-8.47165 2.21688,-15.80552 5.4375,-19.46875 z" />
        <path
           inkscape:connector-curvature="0"
           id="path3464"
           style="fill:#ffbd00;fill-opacity:1;stroke:#000000;stroke-width:1.5"
           d="m 361.1591,886.11831 c 0,-7.09373 -1.16603,-13.91098 -3.3125,-20.28125 -3.64328,3.30847 -6.21875,11.13748 -6.21875,20.28125 0,9.1561 2.56764,16.98056 6.21875,20.28125 2.14647,-6.37027 3.3125,-13.18752 3.3125,-20.28125 z" />
        <path
           inkscape:connector-curvature="0"
           id="path3466"
           style="fill:#ffbd00;fill-opacity:1;stroke:#000000;stroke-width:1.5"
           d="m 238.28511,905.57205 c 6.72929,-7.2335 12.81984,-15.88472 19.625,-13.34375 6.89135,2.57316 8.64398,3.34821 10.5,3.34821 5.23146,0 9.46875,-4.3484 9.46875,-9.45759 0,-5.10919 -4.23729,-9.48883 -9.46875,-9.48883 -1.85602,0 -3.60865,0.77505 -10.5,3.34821 -6.80516,2.54097 -12.89571,-6.11025 -19.625,-13.34375 3.22062,3.66323 5.4375,10.9971 5.4375,19.46875 0,8.47165 -2.21688,15.80552 -5.4375,19.46875 z" />
        <path
           inkscape:connector-curvature="0"
           id="path3468"
           style="fill:#ffbd00;fill-opacity:1;stroke:#000000;stroke-width:1.5"
           d="m 234.19136,886.1033 c 0,7.09373 1.16603,13.91098 3.3125,20.28125 3.64328,-3.30847 6.21875,-11.13748 6.21875,-20.28125 0,-9.1561 -2.56764,-16.98056 -6.21875,-20.28125 -2.14647,6.37027 -3.3125,13.18752 -3.3125,20.28125 z" />
        <path
           inkscape:connector-curvature="0"
           id="path3470"
           style="fill:#ffbd00;fill-opacity:1;stroke:#000000;stroke-width:1.5"
           d="m 241.92089,857.87203 c 9.87318,-0.35653 20.29719,-2.1672 23.31242,4.44151 3.05343,6.69242 3.74468,8.47976 5.05708,9.79217 3.6992,3.6992 9.7702,3.62063 13.38295,0.008 3.61274,-3.61275 3.7134,-9.70583 0.0142,-13.40504 -1.31241,-1.3124 -3.09975,-2.00365 -9.79217,-5.05707 -6.60871,-3.01524 -4.79804,-13.43925 -4.44151,-23.31243 -0.31297,4.86762 -3.93123,11.62102 -9.92159,17.61138 -5.99037,5.99036 -12.74377,9.60862 -17.61138,9.92159 z" />
        <path
           inkscape:connector-curvature="0"
           id="path3472"
           style="fill:#ffbd00;fill-opacity:1;stroke:#000000;stroke-width:1.5"
           d="m 252.79265,841.21083 c -5.01602,5.01602 -9.01204,10.66105 -11.99871,16.6833 4.91563,0.23674 12.2727,-3.47807 18.73833,-9.94369 6.47434,-6.47434 10.19147,-13.82267 9.94369,-18.73833 -6.02225,2.98667 -11.66728,6.98269 -16.68331,11.99872 z" />
        <path
           inkscape:connector-curvature="0"
           id="path3474"
           style="fill:#ffbd00;fill-opacity:1;stroke:#000000;stroke-width:1.5"
           d="m 353.4363,857.87203 c -9.87318,-0.35653 -20.29719,-2.1672 -23.31242,4.44151 -3.05343,6.69242 -3.74468,8.47976 -5.05708,9.79217 -3.6992,3.6992 -9.7702,3.62063 -13.38295,0.008 -3.61274,-3.61275 -3.7134,-9.70583 -0.0142,-13.40504 1.31241,-1.3124 3.09975,-2.00365 9.79217,-5.05707 6.60871,-3.01524 4.79804,-13.43925 4.44151,-23.31243 0.31297,4.86762 3.93123,11.62102 9.92159,17.61138 5.99037,5.99036 12.74377,9.60862 17.61138,9.92159 z" />
        <path
           inkscape:connector-curvature="0"
           id="path3476"
           style="fill:#ffbd00;fill-opacity:1;stroke:#000000;stroke-width:1.5"
           d="m 342.56454,841.21083 c 5.01602,5.01602 9.01204,10.66105 11.99871,16.6833 -4.91563,0.23674 -12.2727,-3.47807 -18.73833,-9.94369 -6.47434,-6.47434 -10.19147,-13.82267 -9.94369,-18.73833 6.02225,2.98667 11.66728,6.98269 16.68331,11.99872 z" />
        <path
           inkscape:connector-curvature="0"
           id="path3478"
           style="fill:#ffbd00;fill-opacity:1;stroke:#000000;stroke-width:1.5"
           d="m 241.92084,914.34673 c 9.87318,0.35653 20.29719,2.1672 23.31242,-4.44151 3.05343,-6.69242 3.74468,-8.47976 5.05708,-9.79217 3.6992,-3.6992 9.7702,-3.62063 13.38295,-0.008 3.61274,3.61275 3.7134,9.70583 0.0142,13.40504 -1.31241,1.3124 -3.09975,2.00365 -9.79217,5.05707 -6.60871,3.01524 -4.79804,13.43925 -4.44151,23.31243 -0.31297,-4.86762 -3.93123,-11.62102 -9.92159,-17.61138 -5.99037,-5.99036 -12.74377,-9.60862 -17.61138,-9.92159 z" />
        <path
           inkscape:connector-curvature="0"
           id="path3480"
           style="fill:#ffbd00;fill-opacity:1;stroke:#000000;stroke-width:1.5"
           d="m 252.7926,931.00793 c -5.01602,-5.01602 -9.01204,-10.66105 -11.99871,-16.6833 4.91563,-0.23674 12.2727,3.47807 18.73833,9.94369 6.47434,6.47434 10.19147,13.82267 9.94369,18.73833 -6.02225,-2.98667 -11.66728,-6.98269 -16.68331,-11.99872 z" />
        <path
           inkscape:connector-curvature="0"
           id="path3482"
           style="fill:#ffbd00;fill-opacity:1;stroke:#000000;stroke-width:1.5"
           d="m 353.4363,914.34673 c -9.87318,0.35653 -20.29719,2.1672 -23.31242,-4.44151 -3.05343,-6.69242 -3.74468,-8.47976 -5.05708,-9.79217 -3.6992,-3.6992 -9.7702,-3.62063 -13.38295,-0.008 -3.61274,3.61275 -3.7134,9.70583 -0.0142,13.40504 1.31241,1.3124 3.09975,2.00365 9.79217,5.05707 6.60871,3.01524 4.79804,13.43925 4.44151,23.31243 0.31297,-4.86762 3.93123,-11.62102 9.92159,-17.61138 5.99037,-5.99036 12.74377,-9.60862 17.61138,-9.92159 z" />
        <path
           inkscape:connector-curvature="0"
           id="path3484"
           style="fill:#ffbd00;fill-opacity:1;stroke:#000000;stroke-width:1.5"
           d="m 342.56454,931.00793 c 5.01602,-5.01602 9.01204,-10.66105 11.99871,-16.6833 -4.91563,-0.23674 -12.2727,3.47807 -18.73833,9.94369 -6.47434,6.47434 -10.19147,13.82267 -9.94369,18.73833 6.02225,-2.98667 11.66728,-6.98269 16.68331,-11.99872 z" />
        <path
           inkscape:connector-curvature="0"
           id="path3486"
           transform="matrix(0.40969,0,0,0.40969,175.72253,523.08059)"
           style="fill:#ffbd00;fill-opacity:1;stroke:#000000;stroke-width:3.29046369"
           d="m 349.2857,886.11218 a 51.607145,51.607145 0 1 1 -103.21429,0 51.607145,51.607145 0 1 1 103.21429,0 z" />
        <path
           inkscape:connector-curvature="0"
           id="path3488"
           transform="matrix(0.14143,0,0,0.14143,255.57908,760.79291)"
           style="fill:#ffbd00;fill-opacity:1;stroke:#000000;stroke-width:10.60625362"
           d="m 349.2857,886.11218 a 51.607145,51.607145 0 1 1 -103.21429,0 51.607145,51.607145 0 1 1 103.21429,0 z" />
      </g>
      <path
         inkscape:connector-curvature="0"
         id="path3490"
         style="fill:#ffd700;stroke:#000000;stroke-width:0.22947967;stroke-linejoin:round"
         d="m 164.32155,161.59877 c -1.2076,7.78186 -7.79316,12.40943 -7.88119,14.8373 -0.0719,1.98239 3.61082,5.99592 4.17366,9.61663 l 3.01192,0.86772 0.48764,-1.52748 c 0.58245,-2.7262 0.004,-5.77621 2.23743,-8.26126 -0.9213,-0.81618 -1.27825,0.18987 -1.79281,0.69561 l 1.67807,-5.97365 c -0.62583,-0.37443 -1.09367,0.19039 -1.6207,0.40876 1.83818,-3.67533 0.0959,-7.12755 -0.29402,-10.66363 z" />
      <path
         inkscape:connector-curvature="0"
         id="path3492"
         style="fill:#008000;stroke-width:0.22947967"
         d="m 163.46778,164.86495 c -2.16678,5.84168 -6.95289,9.50802 -7.02781,11.57438 -0.0563,1.55163 2.18731,4.34346 3.43502,7.22144 l 0.0143,0.0215 c 1.37456,-1.78511 -2.8195,-4.52299 -2.28762,-6.84136 1.32729,-5.78547 4.76793,-7.08886 5.86607,-11.97597 z" />
      <path
         inkscape:connector-curvature="0"
         id="path3494"
         style="fill:#ffbd00;fill-opacity:1;stroke-width:0.22947967"
         d="m 162.11998,186.48656 c -0.56284,-3.62071 -4.24445,-7.6377 -4.17257,-9.6201 0.088,-2.42786 6.67392,-7.05395 7.88152,-14.8358 0.38988,3.53608 2.12794,6.9879 0.28976,10.66323 0.52703,-0.21837 0.99684,-0.7801 1.62267,-0.40566 l -1.68062,5.96909 c 0.51456,-0.50574 0.87523,-1.5116 1.79652,-0.69543 -2.66166,2.96184 -1.32129,6.73526 -2.72376,9.79395 6.32048,-8.49937 4.03416,-31.63375 16.34257,-23.70252 -8.90785,-4.05038 -9.30197,9.62209 -11.82228,18.60272 3.8684,-4.23762 4.36687,-20.35867 11.95313,-11.48595 -4.85465,-4.7021 -7.50798,8.20633 -10.98224,14.54737 4.3164,-3.60838 8.63281,-15.33806 12.94921,-7.45809 -9.45812,-2.59159 -10.02287,18.5399 -22.02655,17.36203 -10.32603,-1.01324 -8.16177,-11.6281 -9.16336,-20.78894 -0.11758,-1.07544 -3.26524,-1.944 -3.07147,-3.24533 0.18628,-1.25102 1.7251,-1.91112 3.36123,-1.50676 5.00764,1.23761 -0.37286,11.75905 9.44624,16.80619 z" />
      <path
         inkscape:connector-curvature="0"
         id="path3496"
         style="fill:#ff0000;stroke:#000000;stroke-width:0.22947967;stroke-linejoin:round"
         d="m 149.75637,170.29358 c -1.22105,0.3354 -2.34614,0.9052 -3.77924,0.74581 -0.26498,1.24712 0.84098,1.45032 1.4199,1.47728 0.88204,0.0411 1.93475,0.11925 3.09081,0.21513 -0.6793,-0.46573 -1.26267,-0.96033 -1.17608,-1.54181 0.0517,-0.34749 0.21107,-0.65025 0.44461,-0.89641 z" />
      <path
         inkscape:connector-curvature="0"
         id="path3498"
         d="m 151.42625,170.72911 c 1.03253,-0.67661 1.57891,0.16603 2.19235,0.79908 -0.73079,-0.18954 -1.46157,-0.0191 -2.19235,-0.79908 z"
         style="stroke-width:0.22947967" />
      <path
         inkscape:connector-curvature="0"
         id="path3500"
         style="font-family:Sans;stroke-width:0.22947967"
         d="m 151.42727,163.7319 c -0.41303,0 -0.74581,0.33277 -0.74581,0.74581 0,0.41303 0.33278,0.75298 0.74581,0.75298 0.16006,0.57466 0.27344,1.35572 0.33705,2.16571 0.0595,0.75793 0.0893,1.49602 0.11474,2.17289 0.16033,0.007 0.32231,0.0223 0.48764,0.0502 -0.0281,-0.68975 -0.0591,-1.45947 -0.12191,-2.25894 -0.0661,-0.84195 -0.16251,-1.65808 -0.35139,-2.30196 0.16959,-0.1371 0.27968,-0.34581 0.27968,-0.58087 0,-0.41304 -0.33278,-0.74581 -0.74581,-0.74581 z m -1.90755,1.35536 c -0.41303,0 -0.74581,0.33278 -0.74581,0.74581 0,0.41303 0.33278,0.74581 0.74581,0.74581 0.0696,0 0.13684,-0.0109 0.2008,-0.0287 0.53122,1.01695 0.99463,1.88773 1.14022,3.11949 0.15132,-0.0402 0.30911,-0.0682 0.47331,-0.0861 -0.16343,-1.32897 -0.67259,-2.27934 -1.21194,-3.31312 0.091,-0.12385 0.14342,-0.27199 0.14342,-0.43744 0,-0.41303 -0.33278,-0.74581 -0.74581,-0.74581 z m 4.81907,0.0789 c -0.41303,0 -0.75298,0.33278 -0.75298,0.74581 0,0.20652 0.087,0.39534 0.22231,0.53068 -0.48558,0.97862 -0.9033,2.01882 -1.05417,3.25574 0.16584,0.0452 0.31563,0.10635 0.45896,0.17211 0.13014,-1.21244 0.54295,-2.23454 1.03266,-3.21989 0.031,0.004 0.0612,0.0143 0.0932,0.0143 0.41304,0 0.74581,-0.33995 0.74581,-0.75298 0,-0.41303 -0.33277,-0.74581 -0.74581,-0.74581 z" />
      <path
         inkscape:connector-curvature="0"
         id="path3502"
         style="fill:#ff0000;stroke-width:0.22947967"
         d="m 177.08597,162.02514 c -2.132,-0.0241 -3.57779,1.44228 -4.68282,3.72187 0.26425,0.7245 0.53167,1.47904 0.79601,2.25895 1.06867,-2.7944 2.52221,-4.7972 4.81907,-5.05573 -0.0524,-0.28906 -0.10956,-0.5823 -0.15777,-0.85338 -0.2674,-0.0443 -0.52625,-0.0689 -0.77449,-0.0717 z m 0.45179,6.12424 c -1.36134,0.0812 -2.36141,1.43 -3.21989,3.28443 0.3254,1.04027 0.63444,2.09352 0.9466,3.14817 1.23436,-2.63754 2.55233,-4.63191 4.09478,-4.80473 -0.0876,-0.40863 -0.16749,-0.8097 -0.25099,-1.21194 -0.5744,-0.31408 -1.09325,-0.4444 -1.5705,-0.41593 z m 2.79678,7.04216 c -1.34129,0.0596 -2.68177,1.34342 -4.02307,3.01909 0.23002,0.81806 0.45399,1.62258 0.66693,2.40237 1.25136,-1.55691 2.62708,-2.67004 4.31708,-2.9187 -0.2301,-0.8061 -0.44941,-1.64446 -0.66692,-2.49559 -0.0976,-0.009 -0.19643,-0.0115 -0.29402,-0.007 z" />
      <path
         inkscape:connector-curvature="0"
         id="path3504"
         style="fill:#008000;stroke-width:0.22947967"
         d="m 171.30595,168.57248 c -0.54836,1.69548 -1.02303,3.59389 -1.49162,5.55054 0.25467,1.3928 0.51203,2.83653 0.76732,4.2884 0.54876,-2.52314 1.06195,-5.15158 1.69959,-7.51545 -0.33806,-0.81958 -0.66994,-1.60999 -0.97529,-2.32349 z m 2.094,5.1131 c -0.8195,2.2407 -1.56602,4.73402 -2.48842,6.61188 0.19419,1.12861 0.38133,2.24635 0.55936,3.33463 1.01955,-2.20222 1.98468,-4.81534 2.98323,-7.18559 -0.34951,-0.94554 -0.70113,-1.86121 -1.05417,-2.76092 z m 2.07249,5.62225 c -1.29394,1.73957 -2.5857,3.67891 -3.87964,5.07724 0.21785,1.35167 0.41694,2.64615 0.58804,3.83661 1.41885,-2.25037 2.67318,-4.66027 4.04458,-6.61188 -0.23952,-0.76392 -0.49021,-1.53254 -0.75298,-2.30197 z" />
      <path
         inkscape:connector-curvature="0"
         id="path3506"
         style="fill:#ff0000;stroke-width:0.22947967"
         d="m 166.67333,166.50717 c -1.20187,4.63223 -3.80076,11.89708 -3.80076,11.89708 l 3.24857,-5.7083 0.33705,-0.79601 c 0.679,-1.83663 0.54169,-3.61899 0.21514,-5.39277 z" />
      <path
         inkscape:connector-curvature="0"
         id="path3508"
         style="fill:#008000;stroke-width:0.22947967"
         d="m 167.06775,178.64808 c -0.0436,0.0347 -3.11764,2.48609 -3.52108,4.76887 -0.18075,1.02274 0.3227,2.73941 0.3227,2.73941 0.59443,-0.98489 1.28435,-1.82637 2.05098,-2.55296 0.14441,-1.68156 0.24944,-3.3978 1.1474,-4.95532 z" />
      <path
         inkscape:connector-curvature="0"
         id="path3510"
         style="fill:#ff0000;stroke-width:0.22947967"
         d="m 164.27813,166.9231 c -2.35183,4.90524 -6.26448,8.07884 -6.3322,9.94651 -0.0624,1.72036 2.70101,4.97187 3.80076,8.16804 0.0191,-0.0329 0.0424,-0.0698 0.0574,-0.11474 0.72328,-2.16986 -1.76606,-4.88221 -2.4956,-7.07084 -0.50031,-1.50096 2.22943,-3.90668 2.8685,-5.18481 1.01234,-2.02469 2.14407,-3.58451 2.10117,-5.74416 z" />
      <path
         inkscape:connector-curvature="0"
         id="path3512"
         style="fill:none;stroke:#000000;stroke-width:0.22947967;stroke-linejoin:round"
         d="m 162.11998,186.48656 c -0.56284,-3.62071 -4.24445,-7.6377 -4.17257,-9.6201 0.088,-2.42786 6.67392,-7.05395 7.88152,-14.8358 0.38988,3.53608 2.12794,6.9879 0.28976,10.66323 0.52703,-0.21837 0.99684,-0.7801 1.62267,-0.40566 l -1.68062,5.96909 c 0.51456,-0.50574 0.87523,-1.5116 1.79652,-0.69543 -2.66166,2.96184 -1.32129,6.73526 -2.72376,9.79395 6.32048,-8.49937 4.03416,-31.63375 16.34257,-23.70252 -8.90785,-4.05038 -9.30197,9.62209 -11.82228,18.60272 3.8684,-4.23762 4.36687,-20.35867 11.95313,-11.48595 -4.85465,-4.7021 -7.50798,8.20633 -10.98224,14.54737 4.3164,-3.60838 8.63281,-15.33806 12.94921,-7.45809 -9.45812,-2.59159 -10.02287,18.5399 -22.02655,17.36203 -10.32603,-1.01324 -8.16177,-11.6281 -9.16336,-20.78894 -0.11758,-1.07544 -3.26524,-1.944 -3.07147,-3.24533 0.18628,-1.25102 1.7251,-1.91112 3.36123,-1.50676 5.00764,1.23761 -0.37286,11.75905 9.44624,16.80619 z" />
      <path
         inkscape:connector-curvature="0"
         id="path3514"
         style="fill:#ff0000;stroke:#000000;stroke-width:0.22947967"
         d="m 163.31002,195.22798 c -0.51225,0.047 -1.04592,0.0534 -1.60636,0.007 l -0.73864,2.36652 c 0,0 -0.8098,0.43326 -1.34819,0.91075 l 3.141,0.0359 c -0.006,-0.38175 -0.31553,-1.06852 -0.31553,-1.06852 0,0 0.47957,-1.23662 0.86772,-2.25177 z" />
      <path
         inkscape:connector-curvature="0"
         id="path3516"
         style="fill:#ff0000;stroke:#000000;stroke-width:0.22947967"
         d="m 158.77779,194.6256 -1.77847,2.86132 c -1.11666,0.23563 -2.34617,0.57936 -2.17288,1.19043 0.19465,0.68639 1.03778,-0.14138 1.42708,-0.17211 -0.0989,0.45046 -0.14894,0.66235 0.2725,0.70278 0.28231,0.0271 0.4812,-0.25754 0.88207,-0.48047 0.36419,0.1931 0.60138,0.86298 1.10437,0.48047 0.18495,-0.27121 -0.0502,-1.46293 -0.0502,-1.46293 0,0 1.34604,-1.89248 1.90038,-2.68922 -0.57104,-0.10797 -1.09878,-0.25646 -1.58485,-0.43027 z" />
    </g>
  </g>
</svg>
