<?xml version="1.0" encoding="UTF-8" standalone="no"?>
<!-- Created with Inkscape (http://www.inkscape.org/) -->

<svg
   width="296.99997mm"
   height="210mm"
   viewBox="0 0 1122.5196 793.70081"
   version="1.1"
   id="svg1"
   xml:space="preserve"
   xmlns:inkscape="http://www.inkscape.org/namespaces/inkscape"
   xmlns:sodipodi="http://sodipodi.sourceforge.net/DTD/sodipodi-0.dtd"
   xmlns="http://www.w3.org/2000/svg"
   xmlns:svg="http://www.w3.org/2000/svg"><sodipodi:namedview
     id="namedview1"
     pagecolor="#505050"
     bordercolor="#eeeeee"
     borderopacity="1"
     inkscape:showpageshadow="0"
     inkscape:pageopacity="0"
     inkscape:pagecheckerboard="0"
     inkscape:deskcolor="#505050"
     inkscape:document-units="mm" /><defs
     id="defs1" /><g
     inkscape:label="Слой 1"
     inkscape:groupmode="layer"
     id="layer1"><rect
       style="fill:#ef0000;fill-opacity:1;stroke:none;stroke-width:18.8976;stroke-miterlimit:4;stroke-dasharray:none;stroke-opacity:1"
       id="rect1"
       width="1123.3622"
       height="789.8338"
       x="-0.42123559"
       y="1.9335024"
       ry="0" /><rect
       style="fill:#ffdf09;fill-opacity:1;stroke:none;stroke-width:32.0337;stroke-miterlimit:4;stroke-dasharray:none;stroke-opacity:1"
       id="rect2"
       width="235.15656"
       height="1547.6583"
       x="506.73416"
       y="-1061.4692"
       ry="1.7765582"
       transform="rotate(60)" /><circle
       style="fill:#ffdf09;fill-opacity:1;stroke:none;stroke-width:26.4259;stroke-miterlimit:4;stroke-dasharray:none;stroke-opacity:1"
       id="path2"
       cx="561.25983"
       cy="396.8504"
       r="235.15656" /><rect
       style="fill:#ef0000;fill-opacity:1;stroke:none;stroke-width:10.7529;stroke-miterlimit:4;stroke-dasharray:none;stroke-opacity:1"
       id="rect1-3"
       width="186.35368"
       height="1541.5377"
       x="531.13562"
       y="-1058.4089"
       ry="0"
       transform="rotate(60)" /><circle
       style="fill:#ef0000;fill-opacity:1;stroke:none;stroke-width:23.1679;stroke-miterlimit:4;stroke-dasharray:none;stroke-opacity:1"
       id="path2-8"
       cx="561.25983"
       cy="396.8504"
       r="206.16464" /><g
       transform="matrix(0.02082434,-0.01150381,-0.01150381,-0.02082434,503.94857,602.47145)"
       fill="#000000"
       stroke="none"
       id="g2"
       style="fill:#ffdf09;fill-opacity:1"><path
         d="m 2813,12723 c -33,-73 -255,-629 -407,-1019 l -67,-171 -452,-8 c -249,-4 -555,-11 -680,-14 l -228,-6 298,-240 c 440,-354 686,-568 698,-606 13,-41 -52,-322 -185,-794 -108,-384 -140,-503 -140,-520 0,-27 29,-10 495,295 447,292 680,433 719,433 41,0 275,-141 885,-531 257,-165 301,-191 301,-178 0,51 -77,324 -190,671 -109,333 -180,578 -180,616 0,33 23,53 420,354 430,327 612,476 597,491 -19,19 -177,26 -732,32 l -589,7 -93,245 c -224,588 -405,1020 -428,1020 -3,0 -22,-35 -42,-77 z"
         id="path1"
         style="fill:#ffdf09;fill-opacity:1" /><path
         d="m 7495,11899 c -10,-15 15,-40 235,-233 342,-300 787,-756 1043,-1069 716,-873 1205,-1896 1371,-2867 53,-309 61,-412 61,-780 0,-423 -21,-610 -107,-945 -91,-356 -352,-919 -545,-1176 l -72,-96 -114,116 c -272,279 -1975,2112 -2342,2521 -355,396 -479,558 -462,604 8,19 121,115 912,775 385,321 700,585 700,587 0,7 -398,436 -527,570 l -137,141 -183,-91 c -434,-215 -778,-318 -1013,-301 -110,7 -350,38 -504,65 l -113,19 -152,-123 C 5081,9237 2591,7177 2591,7170 c -1,-4 1165,-1460 1184,-1478 6,-7 37,17 420,332 318,260 606,483 804,621 l 84,59 166,-170 C 6179,5581 6902,4807 7818,3780 l 120,-135 -56,-26 c -208,-97 -525,-172 -845,-200 -194,-17 -650,-6 -847,21 -597,80 -1195,274 -1681,545 -238,133 -486,318 -894,669 -238,204 -374,313 -441,352 l -43,25 -163,-132 C 2641,4632 2116,4199 1765,3906 1477,3666 40,2459 7,2430 -14,2411 132,2170 295,1955 416,1795 709,1443 1141,938 l 57,-66 179,130 c 470,345 723,548 1623,1303 325,272 594,495 598,495 4,0 63,-44 132,-97 551,-426 793,-584 1195,-783 1058,-523 2192,-654 3288,-380 290,73 506,152 918,336 141,63 261,114 266,114 11,0 131,-130 598,-650 555,-617 960,-1053 1167,-1257 l 83,-82 185,161 c 537,465 1100,993 1140,1068 7,12 -29,57 -157,196 -332,358 -656,717 -984,1089 -535,608 -509,576 -509,605 0,62 59,191 223,490 353,644 546,1273 619,2025 19,195 16,779 -5,985 -132,1278 -639,2449 -1501,3465 -411,484 -1016,977 -1631,1331 -279,160 -610,313 -940,434 -156,57 -182,64 -190,49 z"
         id="path2-0"
         style="fill:#ffdf09;fill-opacity:1" /></g></g></svg>
