<?xml version="1.0" encoding="UTF-8" standalone="no"?>
<!DOCTYPE svg PUBLIC "-//W3C//DTD SVG 1.1//EN" "http://www.w3.org/Graphics/SVG/1.1/DTD/svg11.dtd">
<svg xmlns="http://www.w3.org/2000/svg" version="1.1" viewBox="0.00 0.00 1200.00 800.00">
<g stroke-width="2.00" fill="none" stroke-linecap="butt">
<path stroke="#829aad" vector-effect="non-scaling-stroke" d="
  M 1200.00 538.75
  L 0.00 538.75"
/>
<path stroke="#829aad" vector-effect="non-scaling-stroke" d="
  M 157.99 96.24
  A 0.35 0.35 0.0 0 1 157.65 95.99
  L 140.90 41.95
  A 0.35 0.35 0.0 0 0 140.23 41.95
  L 123.39 96.00
  A 0.35 0.35 0.0 0 1 123.05 96.25
  L 68.73 96.25
  A 0.35 0.35 0.0 0 0 68.51 96.88
  L 112.48 130.40
  A 0.35 0.35 0.0 0 1 112.60 130.78
  L 95.93 185.05
  A 0.35 0.35 0.0 0 0 96.48 185.43
  L 140.34 151.97
  A 0.35 0.35 0.0 0 1 140.76 151.97
  L 184.68 185.50
  A 0.35 0.35 0.0 0 0 185.23 185.12
  L 168.48 130.80
  A 0.35 0.35 0.0 0 1 168.60 130.42
  L 212.51 96.90
  A 0.35 0.35 0.0 0 0 212.30 96.27
  L 157.99 96.24"
/>
<path stroke="#829aad" vector-effect="non-scaling-stroke" d="
  M 137.07 328.51
  L 152.55 355.92
  A 1.23 1.22 74.1 0 0 153.67 356.55
  L 159.93 356.36
  A 1.33 1.29 19.2 0 0 160.87 355.92
  C 163.56 352.91 163.00 349.71 161.07 346.19
  Q 150.17 326.39 146.44 320.06
  Q 145.43 318.36 143.04 317.91
  A 0.66 0.66 0.0 0 1 142.50 317.26
  L 142.50 313.25
  A 1.19 1.19 0.0 0 1 144.31 312.24
  C 154.50 318.48 165.97 319.79 177.65 318.21
  C 196.87 315.59 212.29 299.05 214.89 280.07
  C 217.29 262.55 214.16 243.65 200.93 231.12
  C 194.21 224.75 184.30 219.61 175.30 215.70
  Q 168.13 212.59 160.23 213.33
  Q 159.67 213.39 159.57 213.94
  Q 159.19 216.02 161.19 217.08
  C 170.10 221.82 178.80 227.14 185.45 234.57
  C 194.42 244.59 202.68 259.66 200.12 273.68
  C 198.15 284.44 190.86 294.03 181.62 299.59
  C 170.59 306.22 158.16 305.98 146.93 300.10
  C 144.31 298.72 139.04 298.00 138.66 302.25
  A 1.13 1.12 -57.3 0 1 136.56 302.71
  C 127.23 286.13 118.08 269.44 108.45 253.10
  Q 105.79 248.59 103.62 243.81
  A 0.54 0.50 -79.6 0 0 103.50 243.62
  L 102.80 242.92
  Q 102.18 242.31 102.94 241.89
  L 114.49 235.51
  Q 114.92 235.27 115.15 234.83
  C 116.91 231.49 117.18 227.70 115.29 224.32
  C 113.97 221.97 113.83 220.33 111.12 218.53
  Q 110.72 218.27 110.25 218.26
  C 107.03 218.20 104.10 217.86 101.12 219.21
  C 97.11 221.04 93.32 223.58 89.31 225.59
  A 1.86 1.81 -86.5 0 0 88.56 226.27
  C 87.29 228.34 84.83 228.44 83.38 229.25
  Q 76.32 233.21 69.26 237.15
  Q 68.84 237.39 68.62 237.83
  Q 65.90 243.20 68.77 248.42
  C 75.20 260.14 82.41 254.12 91.30 248.43
  Q 91.77 248.13 92.04 248.62
  Q 93.49 251.30 95.12 253.89
  C 97.01 256.88 98.58 261.13 101.03 264.39
  C 102.29 266.06 103.08 268.12 104.25 270.22
  Q 118.63 296.11 126.01 309.02
  Q 127.32 311.31 129.97 312.62
  Q 130.44 312.85 130.48 313.37
  Q 130.72 316.22 129.23 318.46
  C 123.04 327.80 112.49 342.38 112.35 353.13
  A 1.71 1.69 25.4 0 0 112.76 354.26
  Q 116.80 358.97 122.75 356.84
  Q 123.26 356.66 123.50 356.17
  Q 125.21 352.71 127.02 349.34
  C 129.87 344.04 131.73 338.21 134.11 332.66
  C 134.58 331.56 134.67 329.23 136.15 328.28
  Q 136.73 327.91 137.07 328.51"
/>
<path stroke="#829aad" vector-effect="non-scaling-stroke" d="
  M 155.83 99.42
  A 0.41 0.41 0.0 0 1 155.44 99.13
  L 140.98 52.17
  A 0.41 0.41 0.0 0 0 140.20 52.17
  L 125.54 99.30
  A 0.41 0.41 0.0 0 1 125.15 99.59
  L 77.74 99.25
  A 0.41 0.41 0.0 0 0 77.49 99.99
  L 116.00 129.27
  A 0.41 0.41 0.0 0 1 116.14 129.71
  L 101.54 176.80
  A 0.41 0.41 0.0 0 0 102.18 177.24
  L 140.29 148.22
  A 0.41 0.41 0.0 0 1 140.79 148.22
  L 178.92 177.31
  A 0.41 0.41 0.0 0 0 179.56 176.87
  L 165.00 129.70
  A 0.41 0.41 0.0 0 1 165.15 129.26
  L 203.45 100.06
  A 0.41 0.41 0.0 0 0 203.20 99.32
  L 155.83 99.42"
/>
<path stroke="#5a203a" vector-effect="non-scaling-stroke" d="
  M 140.97 60.99
  A 0.40 0.40 0.0 0 0 140.20 60.99
  L 127.66 101.71
  A 0.40 0.40 0.0 0 1 127.27 101.99
  L 87.08 102.02
  A 0.40 0.40 0.0 0 0 86.83 102.74
  L 119.46 127.76
  A 0.40 0.40 0.0 0 1 119.60 128.20
  L 107.01 168.93
  A 0.40 0.40 0.0 0 0 107.64 169.36
  L 140.34 144.21
  A 0.40 0.40 0.0 0 1 140.82 144.21
  L 173.45 169.51
  A 0.40 0.40 0.0 0 0 174.08 169.07
  L 161.50 128.15
  A 0.40 0.40 0.0 0 1 161.64 127.71
  L 194.25 102.72
  A 0.40 0.40 0.0 0 0 194.01 102.00
  L 153.72 102.00
  A 0.40 0.40 0.0 0 1 153.33 101.72
  L 140.97 60.99"
/>
<path stroke="#d7868c" vector-effect="non-scaling-stroke" d="
  M 143.11 308.68
  C 148.79 311.52 153.31 314.29 159.07 315.48
  C 178.87 319.57 197.47 311.66 207.35 294.31
  C 216.74 277.82 215.30 253.53 203.52 238.46
  C 194.35 226.72 178.87 218.93 164.76 215.00
  Q 163.70 214.71 163.18 215.58
  Q 162.82 216.17 163.51 216.23
  C 164.58 216.33 164.98 216.12 165.99 216.64
  C 185.80 226.83 205.44 248.17 202.85 272.29
  C 200.91 290.32 183.83 307.14 165.07 306.96
  Q 153.41 306.85 143.32 301.26
  A 1.38 1.38 0.0 0 0 141.34 302.04
  Q 139.86 306.54 137.03 310.28
  Q 136.78 310.62 136.42 310.83
  L 134.05 312.28
  Q 133.59 312.56 133.46 313.07
  C 132.78 315.73 132.41 318.22 130.94 320.60
  C 124.34 331.29 119.15 338.94 115.84 347.48
  C 114.18 351.74 115.13 355.26 120.31 355.16
  Q 120.77 355.15 121.00 354.74
  C 126.81 344.30 131.33 332.12 135.03 323.80
  C 136.21 321.15 138.43 318.98 140.15 316.53
  A 1.46 1.45 59.7 0 0 140.41 315.53
  Q 139.96 311.80 142.14 308.91
  Q 142.53 308.39 143.11 308.68"
/>
<path stroke="#d7868c" vector-effect="non-scaling-stroke" d="
  M 110.9749 222.3421
  A 4.81 4.81 0.0 0 0 104.4199 220.5242
  L 72.1645 238.7734
  A 4.81 4.81 0.0 0 0 70.3467 245.3284
  L 73.0451 250.0979
  A 4.81 4.81 0.0 0 0 79.6001 251.9158
  L 111.8555 233.6666
  A 4.81 4.81 0.0 0 0 113.6733 227.1116
  L 110.9749 222.3421"
/>
<path stroke="#d7868c" vector-effect="non-scaling-stroke" d="
  M 100.6510 244.7111
  A 0.27 0.27 0.0 0 0 100.2832 244.6084
  L 94.9688 247.6030
  A 0.27 0.27 0.0 0 0 94.8661 247.9707
  L 129.7890 309.9489
  A 0.27 0.27 0.0 0 0 130.1568 310.0516
  L 135.4712 307.0570
  A 0.27 0.27 0.0 0 0 135.5739 306.6893
  L 100.6510 244.7111"
/>
<path stroke="#d7868c" vector-effect="non-scaling-stroke" d="
  M 160.76 351.27
  L 143.98 321.37
  A 1.41 1.41 0.0 0 0 142.06 320.83
  L 141.75 321.01
  A 4.93 3.06 -29.3 0 0 138.95 326.09
  L 154.11 353.11
  A 4.93 3.06 -29.3 0 0 159.91 353.36
  L 160.22 353.19
  A 1.41 1.41 0.0 0 0 160.76 351.27"
/>
<path stroke="#d7868c" vector-effect="non-scaling-stroke" d="
  M 1200.00 614.25
  L 0.00 614.25"
/>
</g>
<path fill="#04345b" d="
  M 0.00 0.00
  L 1200.00 0.00
  L 1200.00 538.75
  L 0.00 538.75
  L 0.00 0.00
  Z
  M 157.99 96.24
  A 0.35 0.35 0.0 0 1 157.65 95.99
  L 140.90 41.95
  A 0.35 0.35 0.0 0 0 140.23 41.95
  L 123.39 96.00
  A 0.35 0.35 0.0 0 1 123.05 96.25
  L 68.73 96.25
  A 0.35 0.35 0.0 0 0 68.51 96.88
  L 112.48 130.40
  A 0.35 0.35 0.0 0 1 112.60 130.78
  L 95.93 185.05
  A 0.35 0.35 0.0 0 0 96.48 185.43
  L 140.34 151.97
  A 0.35 0.35 0.0 0 1 140.76 151.97
  L 184.68 185.50
  A 0.35 0.35 0.0 0 0 185.23 185.12
  L 168.48 130.80
  A 0.35 0.35 0.0 0 1 168.60 130.42
  L 212.51 96.90
  A 0.35 0.35 0.0 0 0 212.30 96.27
  L 157.99 96.24
  Z
  M 137.07 328.51
  L 152.55 355.92
  A 1.23 1.22 74.1 0 0 153.67 356.55
  L 159.93 356.36
  A 1.33 1.29 19.2 0 0 160.87 355.92
  C 163.56 352.91 163.00 349.71 161.07 346.19
  Q 150.17 326.39 146.44 320.06
  Q 145.43 318.36 143.04 317.91
  A 0.66 0.66 0.0 0 1 142.50 317.26
  L 142.50 313.25
  A 1.19 1.19 0.0 0 1 144.31 312.24
  C 154.50 318.48 165.97 319.79 177.65 318.21
  C 196.87 315.59 212.29 299.05 214.89 280.07
  C 217.29 262.55 214.16 243.65 200.93 231.12
  C 194.21 224.75 184.30 219.61 175.30 215.70
  Q 168.13 212.59 160.23 213.33
  Q 159.67 213.39 159.57 213.94
  Q 159.19 216.02 161.19 217.08
  C 170.10 221.82 178.80 227.14 185.45 234.57
  C 194.42 244.59 202.68 259.66 200.12 273.68
  C 198.15 284.44 190.86 294.03 181.62 299.59
  C 170.59 306.22 158.16 305.98 146.93 300.10
  C 144.31 298.72 139.04 298.00 138.66 302.25
  A 1.13 1.12 -57.3 0 1 136.56 302.71
  C 127.23 286.13 118.08 269.44 108.45 253.10
  Q 105.79 248.59 103.62 243.81
  A 0.54 0.50 -79.6 0 0 103.50 243.62
  L 102.80 242.92
  Q 102.18 242.31 102.94 241.89
  L 114.49 235.51
  Q 114.92 235.27 115.15 234.83
  C 116.91 231.49 117.18 227.70 115.29 224.32
  C 113.97 221.97 113.83 220.33 111.12 218.53
  Q 110.72 218.27 110.25 218.26
  C 107.03 218.20 104.10 217.86 101.12 219.21
  C 97.11 221.04 93.32 223.58 89.31 225.59
  A 1.86 1.81 -86.5 0 0 88.56 226.27
  C 87.29 228.34 84.83 228.44 83.38 229.25
  Q 76.32 233.21 69.26 237.15
  Q 68.84 237.39 68.62 237.83
  Q 65.90 243.20 68.77 248.42
  C 75.20 260.14 82.41 254.12 91.30 248.43
  Q 91.77 248.13 92.04 248.62
  Q 93.49 251.30 95.12 253.89
  C 97.01 256.88 98.58 261.13 101.03 264.39
  C 102.29 266.06 103.08 268.12 104.25 270.22
  Q 118.63 296.11 126.01 309.02
  Q 127.32 311.31 129.97 312.62
  Q 130.44 312.85 130.48 313.37
  Q 130.72 316.22 129.23 318.46
  C 123.04 327.80 112.49 342.38 112.35 353.13
  A 1.71 1.69 25.4 0 0 112.76 354.26
  Q 116.80 358.97 122.75 356.84
  Q 123.26 356.66 123.50 356.17
  Q 125.21 352.71 127.02 349.34
  C 129.87 344.04 131.73 338.21 134.11 332.66
  C 134.58 331.56 134.67 329.23 136.15 328.28
  Q 136.73 327.91 137.07 328.51
  Z"
/>
<path fill="#ffffff" d="
  M 157.99 96.24
  L 212.30 96.27
  A 0.35 0.35 0.0 0 1 212.51 96.90
  L 168.60 130.42
  A 0.35 0.35 0.0 0 0 168.48 130.80
  L 185.23 185.12
  A 0.35 0.35 0.0 0 1 184.68 185.50
  L 140.76 151.97
  A 0.35 0.35 0.0 0 0 140.34 151.97
  L 96.48 185.43
  A 0.35 0.35 0.0 0 1 95.93 185.05
  L 112.60 130.78
  A 0.35 0.35 0.0 0 0 112.48 130.40
  L 68.51 96.88
  A 0.35 0.35 0.0 0 1 68.73 96.25
  L 123.05 96.25
  A 0.35 0.35 0.0 0 0 123.39 96.00
  L 140.23 41.95
  A 0.35 0.35 0.0 0 1 140.90 41.95
  L 157.65 95.99
  A 0.35 0.35 0.0 0 0 157.99 96.24
  Z
  M 155.83 99.42
  A 0.41 0.41 0.0 0 1 155.44 99.13
  L 140.98 52.17
  A 0.41 0.41 0.0 0 0 140.20 52.17
  L 125.54 99.30
  A 0.41 0.41 0.0 0 1 125.15 99.59
  L 77.74 99.25
  A 0.41 0.41 0.0 0 0 77.49 99.99
  L 116.00 129.27
  A 0.41 0.41 0.0 0 1 116.14 129.71
  L 101.54 176.80
  A 0.41 0.41 0.0 0 0 102.18 177.24
  L 140.29 148.22
  A 0.41 0.41 0.0 0 1 140.79 148.22
  L 178.92 177.31
  A 0.41 0.41 0.0 0 0 179.56 176.87
  L 165.00 129.70
  A 0.41 0.41 0.0 0 1 165.15 129.26
  L 203.45 100.06
  A 0.41 0.41 0.0 0 0 203.20 99.32
  L 155.83 99.42
  Z"
/>
<path fill="#04345b" d="
  M 155.83 99.42
  L 203.20 99.32
  A 0.41 0.41 0.0 0 1 203.45 100.06
  L 165.15 129.26
  A 0.41 0.41 0.0 0 0 165.00 129.70
  L 179.56 176.87
  A 0.41 0.41 0.0 0 1 178.92 177.31
  L 140.79 148.22
  A 0.41 0.41 0.0 0 0 140.29 148.22
  L 102.18 177.24
  A 0.41 0.41 0.0 0 1 101.54 176.80
  L 116.14 129.71
  A 0.41 0.41 0.0 0 0 116.00 129.27
  L 77.49 99.99
  A 0.41 0.41 0.0 0 1 77.74 99.25
  L 125.15 99.59
  A 0.41 0.41 0.0 0 0 125.54 99.30
  L 140.20 52.17
  A 0.41 0.41 0.0 0 1 140.98 52.17
  L 155.44 99.13
  A 0.41 0.41 0.0 0 0 155.83 99.42
  Z
  M 140.97 60.99
  A 0.40 0.40 0.0 0 0 140.20 60.99
  L 127.66 101.71
  A 0.40 0.40 0.0 0 1 127.27 101.99
  L 87.08 102.02
  A 0.40 0.40 0.0 0 0 86.83 102.74
  L 119.46 127.76
  A 0.40 0.40 0.0 0 1 119.60 128.20
  L 107.01 168.93
  A 0.40 0.40 0.0 0 0 107.64 169.36
  L 140.34 144.21
  A 0.40 0.40 0.0 0 1 140.82 144.21
  L 173.45 169.51
  A 0.40 0.40 0.0 0 0 174.08 169.07
  L 161.50 128.15
  A 0.40 0.40 0.0 0 1 161.64 127.71
  L 194.25 102.72
  A 0.40 0.40 0.0 0 0 194.01 102.00
  L 153.72 102.00
  A 0.40 0.40 0.0 0 1 153.33 101.72
  L 140.97 60.99
  Z"
/>
<path fill="#af0c19" d="
  M 140.97 60.99
  L 153.33 101.72
  A 0.40 0.40 0.0 0 0 153.72 102.00
  L 194.01 102.00
  A 0.40 0.40 0.0 0 1 194.25 102.72
  L 161.64 127.71
  A 0.40 0.40 0.0 0 0 161.50 128.15
  L 174.08 169.07
  A 0.40 0.40 0.0 0 1 173.45 169.51
  L 140.82 144.21
  A 0.40 0.40 0.0 0 0 140.34 144.21
  L 107.64 169.36
  A 0.40 0.40 0.0 0 1 107.01 168.93
  L 119.60 128.20
  A 0.40 0.40 0.0 0 0 119.46 127.76
  L 86.83 102.74
  A 0.40 0.40 0.0 0 1 87.08 102.02
  L 127.27 101.99
  A 0.40 0.40 0.0 0 0 127.66 101.71
  L 140.20 60.99
  A 0.40 0.40 0.0 0 1 140.97 60.99
  Z"
/>
<path fill="#ffffff" d="
  M 136.15 328.28
  C 134.67 329.23 134.58 331.56 134.11 332.66
  C 131.73 338.21 129.87 344.04 127.02 349.34
  Q 125.21 352.71 123.50 356.17
  Q 123.26 356.66 122.75 356.84
  Q 116.80 358.97 112.76 354.26
  A 1.71 1.69 25.4 0 1 112.35 353.13
  C 112.49 342.38 123.04 327.80 129.23 318.46
  Q 130.72 316.22 130.48 313.37
  Q 130.44 312.85 129.97 312.62
  Q 127.32 311.31 126.01 309.02
  Q 118.63 296.11 104.25 270.22
  C 103.08 268.12 102.29 266.06 101.03 264.39
  C 98.58 261.13 97.01 256.88 95.12 253.89
  Q 93.49 251.30 92.04 248.62
  Q 91.77 248.13 91.30 248.43
  C 82.41 254.12 75.20 260.14 68.77 248.42
  Q 65.90 243.20 68.62 237.83
  Q 68.84 237.39 69.26 237.15
  Q 76.32 233.21 83.38 229.25
  C 84.83 228.44 87.29 228.34 88.56 226.27
  A 1.86 1.81 -86.5 0 1 89.31 225.59
  C 93.32 223.58 97.11 221.04 101.12 219.21
  C 104.10 217.86 107.03 218.20 110.25 218.26
  Q 110.72 218.27 111.12 218.53
  C 113.83 220.33 113.97 221.97 115.29 224.32
  C 117.18 227.70 116.91 231.49 115.15 234.83
  Q 114.92 235.27 114.49 235.51
  L 102.94 241.89
  Q 102.18 242.31 102.80 242.92
  L 103.50 243.62
  A 0.54 0.50 -79.6 0 1 103.62 243.81
  Q 105.79 248.59 108.45 253.10
  C 118.08 269.44 127.23 286.13 136.56 302.71
  A 1.13 1.12 -57.3 0 0 138.66 302.25
  C 139.04 298.00 144.31 298.72 146.93 300.10
  C 158.16 305.98 170.59 306.22 181.62 299.59
  C 190.86 294.03 198.15 284.44 200.12 273.68
  C 202.68 259.66 194.42 244.59 185.45 234.57
  C 178.80 227.14 170.10 221.82 161.19 217.08
  Q 159.19 216.02 159.57 213.94
  Q 159.67 213.39 160.23 213.33
  Q 168.13 212.59 175.30 215.70
  C 184.30 219.61 194.21 224.75 200.93 231.12
  C 214.16 243.65 217.29 262.55 214.89 280.07
  C 212.29 299.05 196.87 315.59 177.65 318.21
  C 165.97 319.79 154.50 318.48 144.31 312.24
  A 1.19 1.19 0.0 0 0 142.50 313.25
  L 142.50 317.26
  A 0.66 0.66 0.0 0 0 143.04 317.91
  Q 145.43 318.36 146.44 320.06
  Q 150.17 326.39 161.07 346.19
  C 163.00 349.71 163.56 352.91 160.87 355.92
  A 1.33 1.29 19.2 0 1 159.93 356.36
  L 153.67 356.55
  A 1.23 1.22 74.1 0 1 152.55 355.92
  L 137.07 328.51
  Q 136.73 327.91 136.15 328.28
  Z
  M 143.11 308.68
  C 148.79 311.52 153.31 314.29 159.07 315.48
  C 178.87 319.57 197.47 311.66 207.35 294.31
  C 216.74 277.82 215.30 253.53 203.52 238.46
  C 194.35 226.72 178.87 218.93 164.76 215.00
  Q 163.70 214.71 163.18 215.58
  Q 162.82 216.17 163.51 216.23
  C 164.58 216.33 164.98 216.12 165.99 216.64
  C 185.80 226.83 205.44 248.17 202.85 272.29
  C 200.91 290.32 183.83 307.14 165.07 306.96
  Q 153.41 306.85 143.32 301.26
  A 1.38 1.38 0.0 0 0 141.34 302.04
  Q 139.86 306.54 137.03 310.28
  Q 136.78 310.62 136.42 310.83
  L 134.05 312.28
  Q 133.59 312.56 133.46 313.07
  C 132.78 315.73 132.41 318.22 130.94 320.60
  C 124.34 331.29 119.15 338.94 115.84 347.48
  C 114.18 351.74 115.13 355.26 120.31 355.16
  Q 120.77 355.15 121.00 354.74
  C 126.81 344.30 131.33 332.12 135.03 323.80
  C 136.21 321.15 138.43 318.98 140.15 316.53
  A 1.46 1.45 59.7 0 0 140.41 315.53
  Q 139.96 311.80 142.14 308.91
  Q 142.53 308.39 143.11 308.68
  Z
  M 110.9749 222.3421
  A 4.81 4.81 0.0 0 0 104.4199 220.5242
  L 72.1645 238.7734
  A 4.81 4.81 0.0 0 0 70.3467 245.3284
  L 73.0451 250.0979
  A 4.81 4.81 0.0 0 0 79.6001 251.9158
  L 111.8555 233.6666
  A 4.81 4.81 0.0 0 0 113.6733 227.1116
  L 110.9749 222.3421
  Z
  M 100.6510 244.7111
  A 0.27 0.27 0.0 0 0 100.2832 244.6084
  L 94.9688 247.6030
  A 0.27 0.27 0.0 0 0 94.8661 247.9707
  L 129.7890 309.9489
  A 0.27 0.27 0.0 0 0 130.1568 310.0516
  L 135.4712 307.0570
  A 0.27 0.27 0.0 0 0 135.5739 306.6893
  L 100.6510 244.7111
  Z
  M 160.76 351.27
  L 143.98 321.37
  A 1.41 1.41 0.0 0 0 142.06 320.83
  L 141.75 321.01
  A 4.93 3.06 -29.3 0 0 138.95 326.09
  L 154.11 353.11
  A 4.93 3.06 -29.3 0 0 159.91 353.36
  L 160.22 353.19
  A 1.41 1.41 0.0 0 0 160.76 351.27
  Z"
/>
<path fill="#af0c19" d="
  M 142.14 308.91
  Q 139.96 311.80 140.41 315.53
  A 1.46 1.45 59.7 0 1 140.15 316.53
  C 138.43 318.98 136.21 321.15 135.03 323.80
  C 131.33 332.12 126.81 344.30 121.00 354.74
  Q 120.77 355.15 120.31 355.16
  C 115.13 355.26 114.18 351.74 115.84 347.48
  C 119.15 338.94 124.34 331.29 130.94 320.60
  C 132.41 318.22 132.78 315.73 133.46 313.07
  Q 133.59 312.56 134.05 312.28
  L 136.42 310.83
  Q 136.78 310.62 137.03 310.28
  Q 139.86 306.54 141.34 302.04
  A 1.38 1.38 0.0 0 1 143.32 301.26
  Q 153.41 306.85 165.07 306.96
  C 183.83 307.14 200.91 290.32 202.85 272.29
  C 205.44 248.17 185.80 226.83 165.99 216.64
  C 164.98 216.12 164.58 216.33 163.51 216.23
  Q 162.82 216.17 163.18 215.58
  Q 163.70 214.71 164.76 215.00
  C 178.87 218.93 194.35 226.72 203.52 238.46
  C 215.30 253.53 216.74 277.82 207.35 294.31
  C 197.47 311.66 178.87 319.57 159.07 315.48
  C 153.31 314.29 148.79 311.52 143.11 308.68
  Q 142.53 308.39 142.14 308.91
  Z"
/>
<rect fill="#af0c19" x="-23.34" y="-7.55" transform="translate(92.01,236.22) rotate(-29.5)" width="46.68" height="15.10" rx="4.81"/>
<rect fill="#af0c19" x="-3.32" y="-35.84" transform="translate(115.22,277.33) rotate(-29.4)" width="6.64" height="71.68" rx="0.27"/>
<path fill="#af0c19" d="
  M 160.76 351.27
  A 1.41 1.41 0.0 0 1 160.22 353.19
  L 159.91 353.36
  A 4.93 3.06 -29.3 0 1 154.11 353.11
  L 138.95 326.09
  A 4.93 3.06 -29.3 0 1 141.75 321.01
  L 142.06 320.83
  A 1.41 1.41 0.0 0 1 143.98 321.37
  L 160.76 351.27
  Z"
/>
<path fill="#ffffff" d="
  M 1200.00 538.75
  L 1200.00 614.25
  L 0.00 614.25
  L 0.00 538.75
  L 1200.00 538.75
  Z"
/>
<path fill="#af0c19" d="
  M 1200.00 614.25
  L 1200.00 800.00
  L 0.00 800.00
  L 0.00 614.25
  L 1200.00 614.25
  Z"
/>
</svg>
